<svg width="20" height="20" viewBox="0 0 20 20" fill="none" xmlns="http://www.w3.org/2000/svg">
<path d="M9.16669 14.1667H11.6667V15.8333C11.6667 16.0543 11.7545 16.2663 11.9108 16.4226C12.067 16.5789 12.279 16.6667 12.5 16.6667H14.1667C14.3877 16.6667 14.5997 16.5789 14.7559 16.4226C14.9122 16.2663 15 16.0543 15 15.8333V13.3333C15.3882 13.2041 15.7409 12.9862 16.0302 12.6969C16.3195 12.4076 16.5374 12.0549 16.6667 11.6667H17.5C17.721 11.6667 17.933 11.5789 18.0893 11.4226C18.2456 11.2663 18.3334 11.0543 18.3334 10.8333V9.16667C18.3334 8.94565 18.2456 8.73369 18.0893 8.57741C17.933 8.42113 17.721 8.33333 17.5 8.33333H16.6667C16.6667 7.68648 16.5161 7.04851 16.2268 6.46994C15.9375 5.89138 15.5175 5.38811 15 5V2.5C14.4825 2.5 13.9722 2.62048 13.5093 2.85191C13.0465 3.08334 12.6438 3.41935 12.3334 3.83333L12.0834 4.16667H9.16669C7.8406 4.16667 6.56884 4.69345 5.63115 5.63113C4.69347 6.56881 4.16669 7.84058 4.16669 9.16667V10C4.16669 10.6469 4.31729 11.2848 4.60657 11.8634C4.89586 12.442 5.31587 12.9452 5.83335 13.3333V15.8333C5.83335 16.0543 5.92115 16.2663 6.07743 16.4226C6.23371 16.5789 6.44567 16.6667 6.66669 16.6667H8.33335C8.55437 16.6667 8.76633 16.5789 8.92261 16.4226C9.07889 16.2663 9.16669 16.0543 9.16669 15.8333V14.1667Z" stroke="#615FFF" stroke-width="1.66667" stroke-linecap="round" stroke-linejoin="round"/>
<path d="M13.3333 8.33334H13.3416" stroke="#615FFF" stroke-width="1.66667" stroke-linecap="round" stroke-linejoin="round"/>
<path d="M1.66669 6.66666V7.49999C1.66669 7.94202 1.84228 8.36594 2.15484 8.6785C2.4674 8.99106 2.89133 9.16666 3.33335 9.16666H4.16669" stroke="#615FFF" stroke-width="1.66667" stroke-linecap="round" stroke-linejoin="round"/>
</svg>
