<svg width="20" height="20" viewBox="0 0 20 20" fill="none" xmlns="http://www.w3.org/2000/svg">
<path d="M10.8333 13.3333H6.66667" stroke="#615FFF" stroke-width="1.66667" stroke-linecap="round" stroke-linejoin="round"/>
<path d="M11.6667 6.66669H6.66667" stroke="#615FFF" stroke-width="1.66667" stroke-linecap="round" stroke-linejoin="round"/>
<path d="M13.3333 10H6.66667" stroke="#615FFF" stroke-width="1.66667" stroke-linecap="round" stroke-linejoin="round"/>
<path d="M3.33333 2.49997C3.33333 2.27896 3.42113 2.067 3.57741 1.91072C3.73369 1.75443 3.94565 1.66664 4.16666 1.66664C4.37301 1.6655 4.57539 1.72333 4.74999 1.8333L5.52749 2.3333C5.70169 2.44462 5.9041 2.50377 6.11083 2.50377C6.31755 2.50377 6.51996 2.44462 6.69416 2.3333L7.47249 1.8333C7.64669 1.72199 7.8491 1.66284 8.05583 1.66284C8.26255 1.66284 8.46496 1.72199 8.63916 1.8333L9.41666 2.3333C9.59086 2.44462 9.79327 2.50377 9.99999 2.50377C10.2067 2.50377 10.4091 2.44462 10.5833 2.3333L11.3608 1.8333C11.535 1.72199 11.7374 1.66284 11.9442 1.66284C12.1509 1.66284 12.3533 1.72199 12.5275 1.8333L13.3058 2.3333C13.48 2.44462 13.6824 2.50377 13.8892 2.50377C14.0959 2.50377 14.2983 2.44462 14.4725 2.3333L15.25 1.8333C15.4246 1.72333 15.627 1.6655 15.8333 1.66664C16.0543 1.66664 16.2663 1.75443 16.4226 1.91072C16.5789 2.067 16.6667 2.27896 16.6667 2.49997V17.5C16.6667 17.721 16.5789 17.9329 16.4226 18.0892C16.2663 18.2455 16.0543 18.3333 15.8333 18.3333C15.627 18.3344 15.4246 18.2766 15.25 18.1666L14.4725 17.6666C14.2983 17.5553 14.0959 17.4962 13.8892 17.4962C13.6824 17.4962 13.48 17.5553 13.3058 17.6666L12.5275 18.1666C12.3533 18.278 12.1509 18.3371 11.9442 18.3371C11.7374 18.3371 11.535 18.278 11.3608 18.1666L10.5833 17.6666C10.4091 17.5553 10.2067 17.4962 9.99999 17.4962C9.79327 17.4962 9.59086 17.5553 9.41666 17.6666L8.63916 18.1666C8.46496 18.278 8.26255 18.3371 8.05583 18.3371C7.8491 18.3371 7.64669 18.278 7.47249 18.1666L6.69416 17.6666C6.51996 17.5553 6.31755 17.4962 6.11083 17.4962C5.9041 17.4962 5.70169 17.5553 5.52749 17.6666L4.74999 18.1666C4.57539 18.2766 4.37301 18.3344 4.16666 18.3333C3.94565 18.3333 3.73369 18.2455 3.57741 18.0892C3.42113 17.9329 3.33333 17.721 3.33333 17.5V2.49997Z" stroke="#615FFF" stroke-width="1.66667" stroke-linecap="round" stroke-linejoin="round"/>
</svg>
