<svg width="36" height="36" viewBox="0 0 36 36" fill="none" xmlns="http://www.w3.org/2000/svg">
<rect width="36" height="36" rx="10" fill="#615FFF" fill-opacity="0.1"/>
<path d="M26.3334 18H24.2667C23.9025 17.9992 23.5481 18.1177 23.2576 18.3375C22.9672 18.5572 22.7567 18.866 22.6584 19.2167L20.7 26.1833C20.6874 26.2266 20.6611 26.2646 20.625 26.2917C20.589 26.3187 20.5451 26.3333 20.5 26.3333C20.4549 26.3333 20.4111 26.3187 20.375 26.2917C20.339 26.2646 20.3126 26.2266 20.3 26.1833L15.7 9.81666C15.6874 9.77338 15.6611 9.73537 15.625 9.70832C15.589 9.68128 15.5451 9.66666 15.5 9.66666C15.4549 9.66666 15.4111 9.68128 15.375 9.70832C15.339 9.73537 15.3126 9.77338 15.3 9.81666L13.3417 16.7833C13.2437 17.1326 13.0345 17.4404 12.7457 17.66C12.457 17.8796 12.1045 17.999 11.7417 18H9.66669" stroke="#7C86FF" stroke-width="1.66667" stroke-linecap="round" stroke-linejoin="round"/>
</svg>
