<svg width="28" height="28" viewBox="0 0 28 28" fill="none" xmlns="http://www.w3.org/2000/svg">
<path d="M23.3333 15.1667C23.3333 21 19.25 23.9167 14.3967 25.6083C14.1425 25.6944 13.8664 25.6903 13.615 25.5967C8.74999 23.9167 4.66666 21 4.66666 15.1667V6.99999C4.66666 6.69057 4.78957 6.39382 5.00837 6.17503C5.22716 5.95624 5.5239 5.83332 5.83332 5.83332C8.16666 5.83332 11.0833 4.43332 13.1133 2.65999C13.3605 2.44882 13.6749 2.33279 14 2.33279C14.3251 2.33279 14.6395 2.44882 14.8867 2.65999C16.9283 4.44499 19.8333 5.83332 22.1667 5.83332C22.4761 5.83332 22.7728 5.95624 22.9916 6.17503C23.2104 6.39382 23.3333 6.69057 23.3333 6.99999V15.1667Z" stroke="white" stroke-width="2.33333" stroke-linecap="round" stroke-linejoin="round"/>
<path d="M10.5 14L12.8333 16.3333L17.5 11.6667" stroke="white" stroke-width="2.33333" stroke-linecap="round" stroke-linejoin="round"/>
</svg>
