<svg width="16" height="16" viewBox="0 0 16 16" fill="none" xmlns="http://www.w3.org/2000/svg">
<g clip-path="url(#clip0_1_4708)">
<path d="M1.72416 11.6093C1.4741 11.8593 1.33357 12.1984 1.3335 12.552V14C1.3335 14.1768 1.40373 14.3464 1.52876 14.4714C1.65378 14.5964 1.82335 14.6667 2.00016 14.6667H4.00016C4.17697 14.6667 4.34654 14.5964 4.47157 14.4714C4.59659 14.3464 4.66683 14.1768 4.66683 14V13.3333C4.66683 13.1565 4.73707 12.9869 4.86209 12.8619C4.98712 12.7369 5.15669 12.6667 5.3335 12.6667H6.00016C6.17697 12.6667 6.34654 12.5964 6.47157 12.4714C6.59659 12.3464 6.66683 12.1768 6.66683 12V11.3333C6.66683 11.1565 6.73707 10.9869 6.86209 10.8619C6.98712 10.7369 7.15669 10.6667 7.3335 10.6667H7.44816C7.80176 10.6666 8.14084 10.5261 8.39083 10.276L8.9335 9.73333C9.86005 10.0561 10.8687 10.0549 11.7945 9.72983C12.7202 9.4048 13.5083 8.77522 14.0297 7.94408C14.5512 7.11294 14.7751 6.12944 14.6649 5.15449C14.5547 4.17953 14.1169 3.27083 13.4231 2.57704C12.7293 1.88325 11.8206 1.44545 10.8457 1.33525C9.87071 1.22506 8.88722 1.44899 8.05608 1.97042C7.22494 2.49185 6.59536 3.27991 6.27033 4.20567C5.9453 5.13144 5.94407 6.1401 6.26683 7.06666L1.72416 11.6093Z" stroke="#99A1AF" stroke-width="1.33333" stroke-linecap="round" stroke-linejoin="round"/>
<path d="M10.9998 5.33332C11.1839 5.33332 11.3332 5.18408 11.3332 4.99999C11.3332 4.81589 11.1839 4.66666 10.9998 4.66666C10.8157 4.66666 10.6665 4.81589 10.6665 4.99999C10.6665 5.18408 10.8157 5.33332 10.9998 5.33332Z" fill="#99A1AF" stroke="#99A1AF" stroke-width="1.33333" stroke-linecap="round" stroke-linejoin="round"/>
</g>
<defs>
<clipPath id="clip0_1_4708">
<rect width="16" height="16" fill="white"/>
</clipPath>
</defs>
</svg>
